<svg width="75" height="75" viewBox="0 0 75 75" fill="none" xmlns="http://www.w3.org/2000/svg">
<rect width="75" height="75" rx="15" fill="white"/>
<path d="M43.4142 45.8572C43.4142 47.6878 43.4142 49.551 43.4142 51.3816C43.4142 51.4143 43.4142 51.447 43.4142 51.4797C43.4142 51.6105 43.4142 51.6105 43.2838 51.6105C41.6854 51.6105 40.0544 51.6105 38.4561 51.6105C38.4235 51.6105 38.3909 51.6105 38.3909 51.6105C38.3582 51.6105 38.3256 51.5778 38.3256 51.5451C38.3256 51.5124 38.3256 51.447 38.3256 51.4143C38.3256 49.453 38.3256 47.5243 38.3256 45.563C38.3256 45.4322 38.3582 45.3668 38.4561 45.2688C38.8475 44.8765 39.2063 44.5169 39.5978 44.0919C39.8587 43.7977 40.1523 43.5362 40.3806 43.2747C40.6416 42.9805 40.9678 42.719 41.2287 42.3921C41.4897 42.0979 41.7833 41.8364 42.0116 41.5749C42.2726 41.2807 42.5661 40.9865 42.8597 40.6923C43.0554 40.4961 43.2185 40.3 43.4142 40.1039L43.4469 40.0712C43.4469 40.1039 43.4795 40.1039 43.4795 40.1365C43.4795 40.2019 43.4795 40.2346 43.4795 40.3C43.4142 42.1633 43.4142 44.0266 43.4142 45.8572Z" fill="#424141"/>
<path d="M36.7599 25.9494C36.7599 25.9821 36.7599 26.0148 36.7599 26.0802V38.4694C36.7599 38.5021 36.7599 38.5021 36.7599 38.5348L31.606 43.1767C31.606 43.1113 31.606 43.0786 31.606 43.0132C31.606 39.9077 31.606 36.8349 31.606 33.7295V28.0742C31.606 28.0415 31.606 28.0089 31.606 27.9762V21.896C31.8344 21.994 32.0301 22.0921 32.2584 22.2229C32.7803 22.5171 33.3023 22.8113 33.7915 23.1708C34.0851 23.367 34.3461 23.5958 34.6396 23.8246C34.9006 24.0208 35.1616 24.2496 35.3899 24.4784C35.6835 24.7399 35.9444 25.0014 36.238 25.2956C36.4011 25.4591 36.5642 25.6552 36.7273 25.8514C36.7273 25.8514 36.7599 25.9167 36.7599 25.9494Z" fill="#424141"/>
<path d="M64.4537 20.7845C64.4537 21.2749 64.4864 21.7652 64.4537 22.2556C64.4211 22.8767 64.4537 23.4651 64.4211 24.0535C64.3885 24.4457 64.3885 24.838 64.3885 25.2303C64.3885 25.3283 64.3559 25.361 64.258 25.3283C64.0623 25.2957 63.8666 25.263 63.7035 25.263C63.2142 25.1976 62.7249 25.2303 62.2356 25.2303C62.0073 25.2303 61.8116 25.2303 61.5832 25.2957C61.4854 25.3283 61.3549 25.3283 61.257 25.3283C60.7677 25.3937 60.3111 25.4918 59.8544 25.6225C59.4304 25.7206 59.0389 25.8841 58.6475 26.0475C57.9951 26.309 57.3753 26.6686 56.7882 27.0609C56.5599 27.2243 56.3641 27.3878 56.1358 27.5512C55.8422 27.78 55.6139 28.0415 55.3529 28.2704C54.9941 28.5973 54.6679 28.9568 54.3091 29.251C53.9503 29.5453 53.6567 29.9048 53.2979 30.2317C52.9391 30.5259 52.6455 30.8855 52.2867 31.2124C51.9279 31.5066 51.6343 31.8662 51.3081 32.1604C50.9493 32.4546 50.6557 32.8142 50.2969 33.1411C49.9707 33.4353 49.6772 33.7622 49.351 34.0564C49.1879 34.1871 49.0248 34.3506 48.8943 34.4813L48.1114 35.2332C47.981 35.3312 47.8505 35.462 47.7526 35.5928L46.1217 37.1618H46.089C46.0564 37.1945 46.0564 37.1945 46.0238 37.2272C45.9259 37.3253 45.7955 37.456 45.665 37.5868C45.5997 37.6522 45.5345 37.7176 45.5019 37.7502L44.034 39.1886C44.034 39.1886 44.034 39.1886 44.034 39.2213L43.0881 40.1366C43.0228 40.2019 42.9576 40.2673 42.8923 40.3L42.1095 41.0519C42.0116 41.1172 41.9464 41.2153 41.8811 41.2807L41.033 42.0979C41.0004 42.1306 40.9678 42.1633 40.9026 42.196L40.0871 42.9805C39.9566 43.1113 39.8261 43.242 39.6956 43.3401L37.9994 44.9746C37.9668 45.0073 37.9342 45.0399 37.9016 45.0726C37.6732 45.3015 37.4449 45.5303 37.2166 45.7591C36.8578 46.086 36.5316 46.4456 36.1727 46.7398C35.9118 46.9686 35.6508 47.2628 35.3899 47.4916C35.1615 47.6878 34.9332 47.8512 34.7375 48.0473C34.4765 48.3089 34.1503 48.505 33.8568 48.7011C33.5958 48.8973 33.3349 49.0607 33.0739 49.2242C32.813 49.3876 32.552 49.5184 32.291 49.6818C32.1279 49.7799 31.9648 49.8779 31.7691 49.9433C31.3451 50.1395 30.921 50.3356 30.497 50.499C30.1708 50.6298 29.8446 50.7606 29.5184 50.8586C29.127 50.9894 28.7681 51.0874 28.3767 51.1855C28.1158 51.2509 27.8548 51.2836 27.5938 51.349C27.3981 51.3817 27.2024 51.3817 26.9741 51.447C26.7457 51.4797 26.5174 51.5124 26.2891 51.5451C26.0934 51.5778 25.8976 51.5451 25.7345 51.5778C25.2453 51.6432 24.7886 51.6105 24.2993 51.6105C24.1036 51.6105 23.8752 51.6105 23.6795 51.5778C23.4512 51.5451 23.1902 51.5451 22.9619 51.5124C22.6031 51.447 22.2443 51.4143 21.9181 51.349C21.6245 51.2836 21.3309 51.2182 21.07 51.1528C20.6459 51.0548 20.2545 50.924 19.8631 50.7932C19.4064 50.6298 18.9823 50.4664 18.5583 50.2702C18.2321 50.1068 17.9385 49.976 17.6123 49.8126C17.0578 49.5184 16.5359 49.1915 16.0466 48.8646C15.7204 48.6358 15.4268 48.4069 15.1333 48.1781C14.8723 47.982 14.644 47.7531 14.4156 47.557C14.1873 47.3609 13.9916 47.1647 13.7959 46.9686C13.5675 46.7398 13.3718 46.511 13.1761 46.2821C13.013 46.086 12.8499 45.9226 12.6868 45.7264C12.5237 45.5303 12.3606 45.3341 12.2301 45.1053C12.0344 44.8111 11.8387 44.5496 11.6756 44.2554C11.5451 44.0593 11.4473 43.8631 11.3494 43.667C11.1863 43.3728 11.0232 43.0459 10.8601 42.719C10.6644 42.3267 10.4687 41.9018 10.3382 41.4768C10.2403 41.2153 10.1425 40.9865 10.0772 40.725C9.94677 40.3 9.84891 39.9077 9.75105 39.4828C9.68582 39.1886 9.6532 38.8944 9.58796 38.6002C9.55534 38.404 9.52272 38.1752 9.4901 37.9464C9.45748 37.7829 9.45748 37.6195 9.45748 37.456C9.42486 37.1945 9.45748 36.9003 9.42486 36.6388C9.35962 36.2465 9.42486 35.887 9.39224 35.4947C9.45748 35.2659 9.39224 35.0697 9.42486 34.8409C9.45748 34.5794 9.45748 34.3506 9.4901 34.0891C9.52272 33.7949 9.58796 33.5006 9.62058 33.2391C9.68582 32.7488 9.81629 32.2911 9.94677 31.8008C10.0446 31.4085 10.2077 31.0163 10.3382 30.624C10.4361 30.3625 10.5339 30.1337 10.6318 29.8721C10.697 29.7087 10.7623 29.5779 10.8275 29.4145C11.0232 29.0222 11.2189 28.6626 11.4146 28.2704C11.7082 27.7473 12.0344 27.2243 12.3932 26.734C12.5889 26.4725 12.7847 26.211 12.9804 25.9494C13.1109 25.786 13.2413 25.6879 13.3392 25.5245C13.6001 25.1976 13.8937 24.9034 14.2199 24.6092C14.4156 24.413 14.6113 24.2496 14.8071 24.0862C14.9702 23.9227 15.1659 23.7919 15.329 23.6285C15.4594 23.5304 15.5899 23.4324 15.6878 23.3343C15.8835 23.1709 16.0792 23.0401 16.3075 22.9093C16.5359 22.7459 16.7642 22.6151 16.9926 22.4844C17.4492 22.1902 17.9711 21.9614 18.4604 21.6998C18.8192 21.5364 19.2107 21.3729 19.5695 21.2422C19.7978 21.1441 20.0262 21.0787 20.2219 21.0134C20.6459 20.8826 21.07 20.7845 21.494 20.6865C21.755 20.6211 22.0486 20.5557 22.3095 20.523C22.5705 20.4903 22.8314 20.425 23.0924 20.3923C23.386 20.3596 23.6795 20.3596 23.9731 20.3269C24.5276 20.2615 25.1148 20.3269 25.6693 20.2942C25.8976 20.3596 26.1586 20.2942 26.3869 20.3596C26.4196 20.3596 26.4522 20.3596 26.4522 20.3596C26.6479 20.3596 26.8762 20.3923 27.0719 20.425C27.2024 20.4576 27.3329 20.4576 27.4634 20.4576C27.5612 20.4576 27.6265 20.4903 27.6917 20.4903C28.2136 20.5884 28.7029 20.6865 29.2248 20.8499C29.7793 21.0134 30.3339 21.2095 30.8558 21.4383C31.1494 21.5364 31.4103 21.6672 31.6713 21.7979V27.8781C31.6713 27.8127 31.606 27.7473 31.5734 27.7147C31.2798 27.4858 30.9536 27.257 30.6601 27.0609C30.236 26.7667 29.7793 26.5378 29.3227 26.309C28.866 26.1129 28.4093 25.9167 27.92 25.786C27.6591 25.7206 27.3981 25.6552 27.1372 25.5899C26.9741 25.5572 26.8436 25.5245 26.6805 25.4918C26.55 25.4591 26.4196 25.4591 26.2891 25.4591C26.1912 25.4591 26.0934 25.4264 25.9955 25.4264C25.8976 25.4264 25.7998 25.4264 25.7019 25.3937C25.6693 25.3937 25.6041 25.3937 25.5715 25.3937C25.3105 25.3937 25.0822 25.3937 24.8212 25.3937C24.5276 25.3937 24.2341 25.3937 23.9079 25.4264C23.6795 25.4591 23.4512 25.4918 23.2229 25.5245C22.6031 25.6225 22.0159 25.786 21.4288 25.9821C21.1678 26.0802 20.9069 26.211 20.6459 26.309C20.4828 26.3744 20.3524 26.4398 20.2219 26.5052C19.7 26.7994 19.1781 27.0936 18.7214 27.4531C18.493 27.6166 18.2973 27.8127 18.069 27.9762C17.7754 28.2377 17.4818 28.5319 17.2209 28.8261C16.9273 29.153 16.6664 29.4799 16.438 29.8068C16.0466 30.3625 15.7204 30.9509 15.4268 31.572C15.2311 32.0296 15.0354 32.4873 14.9375 32.9776C14.9049 33.1084 14.8397 33.2718 14.8071 33.4026C14.7744 33.566 14.7418 33.7295 14.7092 33.8929C14.6766 34.0891 14.6113 34.3179 14.6113 34.514C14.6113 34.6448 14.5787 34.7755 14.5787 34.8736C14.5461 35.3312 14.5135 35.7562 14.5461 36.2139C14.5461 36.41 14.5461 36.6061 14.5787 36.7696C14.644 37.1292 14.6766 37.5214 14.7418 37.9137C14.8397 38.4367 15.0028 38.9597 15.1659 39.4501C15.2311 39.6462 15.329 39.8424 15.3942 40.0385C15.4921 40.3 15.6225 40.5288 15.753 40.7903C15.9814 41.2153 16.2423 41.6403 16.5359 42.0325C16.7316 42.3267 16.9599 42.5883 17.1883 42.8498C17.4166 43.1113 17.6449 43.3401 17.9059 43.5689C18.1342 43.7978 18.3952 43.9939 18.6561 44.19C18.9171 44.3535 19.1454 44.5496 19.4064 44.713C19.7652 44.9746 20.1566 45.1707 20.5807 45.3668C21.0374 45.5957 21.494 45.7591 21.9833 45.8899C22.3421 45.9879 22.7009 46.086 23.0598 46.1514C23.3207 46.1841 23.5817 46.2494 23.8426 46.2821C24.0057 46.3148 24.1688 46.2821 24.2993 46.3148C24.6907 46.3802 25.0822 46.3475 25.4736 46.3475C25.6693 46.3475 25.865 46.3148 26.0607 46.3148C26.2565 46.2821 26.4196 46.2821 26.6153 46.2494C26.8436 46.1841 27.0719 46.1514 27.3003 46.086C27.7243 46.0206 28.1158 45.8899 28.5398 45.7591C28.8008 45.661 29.0291 45.563 29.2901 45.4649C29.4858 45.3668 29.7141 45.2688 29.9098 45.1707C30.3991 44.9092 30.8558 44.6477 31.2798 44.3208C31.4756 44.1573 31.6713 44.0266 31.867 43.8631C32.0627 43.6997 32.1932 43.5362 32.3889 43.3728C32.7803 43.0459 33.1391 42.6209 33.5306 42.294C33.8568 41.9998 34.1503 41.673 34.4765 41.3787C34.868 41.0519 35.1942 40.6596 35.553 40.3327C35.6508 40.2673 35.7161 40.1692 35.8139 40.0712C36.0423 39.8424 36.2706 39.6135 36.4989 39.4174C36.5316 39.3847 36.5642 39.352 36.5968 39.3193C36.6947 39.254 36.7599 39.1559 36.8578 39.0578L36.8904 39.0251C37.0861 38.829 37.3144 38.6002 37.5101 38.404C37.5428 38.3713 37.5754 38.3387 37.608 38.306C37.6732 38.2733 37.7059 38.2079 37.7711 38.1752L37.8363 38.1098C38.0647 37.881 38.293 37.6522 38.5213 37.456C38.554 37.4234 38.6192 37.3907 38.6518 37.358C38.7497 37.2926 38.8149 37.1945 38.9128 37.1292C39.1411 36.9003 39.3368 36.7042 39.5652 36.5081C39.5978 36.4754 39.6304 36.4427 39.663 36.41L39.6956 36.3773C39.7609 36.3119 39.8587 36.2465 39.924 36.1485L39.9566 36.1158C40.1523 35.9197 40.3806 35.6908 40.5764 35.4947C40.609 35.462 40.6416 35.4293 40.6742 35.3966C40.7721 35.2986 40.8373 35.2332 40.9352 35.1351H40.9678C41.1635 34.939 41.3592 34.7101 41.5876 34.514C41.6202 34.514 41.6202 34.4813 41.6528 34.4486L41.718 34.4159C41.8485 34.2852 41.979 34.1871 42.0769 34.0564L43.7404 32.4546C43.7731 32.4546 43.7731 32.4219 43.8057 32.4219C43.9362 32.2911 44.0666 32.1604 44.1645 32.0623L44.2297 31.9969C44.3276 31.8989 44.4581 31.7681 44.5559 31.6701C44.9474 31.3105 45.3062 30.9182 45.6976 30.5586C45.7302 30.5259 45.7955 30.4932 45.8281 30.4606L45.9586 30.3625C46.1869 30.1337 46.4152 29.8721 46.6762 29.676C46.7088 29.6433 46.7414 29.6106 46.774 29.5779C46.8719 29.4799 46.9698 29.3818 47.0676 29.2837H47.1002C47.2633 29.1203 47.3938 28.9568 47.5569 28.8261L47.72 28.6626C47.7526 28.63 47.7852 28.5973 47.8179 28.5646L47.8505 28.5319C48.1441 28.2377 48.4376 27.9435 48.7312 27.682C49.09 27.3878 49.3836 27.0282 49.7424 26.7013C50.1012 26.4071 50.3948 26.0475 50.721 25.7533C51.0798 25.4264 51.406 25.0668 51.7648 24.7399C51.9931 24.5438 52.2215 24.2823 52.4498 24.0862C52.776 23.7919 53.1022 23.4977 53.461 23.2362C53.8524 22.942 54.2439 22.6478 54.6679 22.3863C54.8636 22.2556 55.0594 22.1575 55.2551 22.0267C55.5487 21.8633 55.8422 21.6998 56.1358 21.5364C56.5925 21.3076 57.0491 21.1114 57.5058 20.948C57.7994 20.8499 58.093 20.7519 58.3865 20.6538C58.7127 20.5557 59.0389 20.4576 59.3651 20.3923C59.6261 20.3596 59.887 20.2615 60.148 20.2288C60.3437 20.1961 60.5394 20.1634 60.7351 20.1308C60.8982 20.0981 61.0287 20.0981 61.1592 20.0654C61.1918 20.0654 61.2244 20.0654 61.2244 20.0654C61.4528 20.0654 61.7137 20.0327 61.9421 20.0327C61.9747 20.0327 61.9747 20 62.0073 20H63.834C63.8666 20 63.8992 20.0327 63.9318 20.0327C64.1602 20.0327 64.3885 20.0654 64.6168 20.0654C64.6495 20.0654 64.6821 20.0981 64.6821 20.1308C64.6821 20.2615 64.7147 20.3923 64.6495 20.4903C64.4211 20.6865 64.4537 20.7519 64.4537 20.7845Z" fill="url(#paint0_linear_308_25)"/>
<path d="M34.183 51.6759C33.4001 51.6759 32.5846 51.6759 31.8018 51.6759C31.7691 51.6759 31.7039 51.6759 31.6713 51.6759C31.606 51.6759 31.606 51.6432 31.606 51.6105C31.606 51.4797 31.606 51.349 31.606 51.2182C31.606 51.0874 31.606 50.9567 31.606 50.8259C31.7365 50.7606 31.8344 50.7279 31.9649 50.6625C32.3563 50.4664 32.7477 50.2702 33.1392 50.0414C33.6611 49.7472 34.1504 49.4203 34.607 49.0607C34.868 48.8319 35.1616 48.6684 35.4225 48.4396C35.7487 48.1454 36.0423 47.8512 36.3685 47.5243C36.4989 47.3936 36.5968 47.2628 36.7273 47.1321L36.7599 47.0994C36.7599 47.1321 36.7925 47.1321 36.7925 47.1647C36.7925 47.1974 36.7925 47.2301 36.7925 47.2628C36.7925 48.6684 36.7925 50.0741 36.7925 51.4797C36.7925 51.7085 36.8251 51.6759 36.5968 51.6759C35.7813 51.6759 34.9658 51.6759 34.183 51.6759Z" fill="#424141"/>
<path d="M43.4142 32.4546L38.293 37.0965V37.0311C38.293 33.8929 38.293 30.7221 38.293 27.5839C38.293 27.5185 38.293 27.4531 38.3256 27.3878C38.4235 27.3878 38.4561 27.4531 38.4887 27.5185C39.1085 28.1069 39.6956 28.728 40.2828 29.3164C40.4459 29.4799 40.609 29.7087 40.8047 29.8721C41.033 30.0683 41.2287 30.2644 41.4245 30.4605C42.0768 31.147 42.7619 31.8008 43.4142 32.4546Z" fill="#424141"/>
<path d="M65.7585 50.1395V55.2717C65.5954 55.2717 65.4323 55.2717 65.2692 55.2717C65.0409 55.2717 64.8126 55.2717 64.5516 55.2717C64.3233 55.2717 64.1276 55.2717 63.8992 55.239C63.7035 55.2063 63.4752 55.2063 63.2795 55.1736C63.0837 55.1409 62.888 55.0755 62.6923 55.0755C62.4966 55.0429 62.2683 55.0102 62.0725 54.9448C61.8442 54.8794 61.5833 54.8467 61.3549 54.7813C61.0287 54.6833 60.7025 54.5852 60.3763 54.4871C59.9849 54.3564 59.5935 54.2256 59.2347 54.0622C58.8106 53.866 58.3866 53.6699 57.9625 53.4411C57.6363 53.2776 57.3427 53.0815 57.0165 52.8854C56.5272 52.5912 56.1032 52.2643 55.6465 51.9047C55.4508 51.7412 55.2551 51.5778 55.092 51.4144C53.4937 49.9106 51.9605 48.3089 50.3948 46.7398C48.9269 45.2688 47.4264 43.7978 45.9586 42.2941C45.1757 41.5095 44.3928 40.725 43.6426 39.9404C43.6426 39.9404 43.6426 39.9077 43.61 39.9077L47.1655 36.2466C47.1655 36.2466 47.1655 36.2466 47.1981 36.2792C47.9484 37.0311 48.666 37.7503 49.4162 38.5021C49.6119 38.6982 49.8077 38.8944 50.0034 39.0905C52.6455 41.8364 55.3856 44.4842 58.0604 47.1974C58.2561 47.3936 58.4844 47.5897 58.7127 47.7859C59.0389 48.0801 59.3978 48.3089 59.7566 48.5377C60.1806 48.7992 60.6047 49.028 61.0613 49.2569C61.4854 49.453 61.9094 49.6164 62.3661 49.7472C62.6271 49.8126 62.888 49.878 63.149 49.9433C63.4099 50.0087 63.6383 50.0414 63.8992 50.1068C64.0949 50.1395 64.2907 50.1395 64.4864 50.1395C64.9104 50.1722 65.3345 50.1395 65.7585 50.1395Z" fill="#424141"/>
<defs>
<linearGradient id="paint0_linear_308_25" x1="6.69785" y1="43.251" x2="64.064" y2="20.4915" gradientUnits="userSpaceOnUse">
<stop stop-color="#22AF97"/>
<stop offset="1" stop-color="#2FAD6D"/>
</linearGradient>
</defs>
</svg>
