<svg width="85" height="55" viewBox="0 0 85 55" fill="none" xmlns="http://www.w3.org/2000/svg">
<path d="M62.1476 54.3803C62.1476 51.6533 62.1476 48.9664 62.1476 46.2393C62.1476 46.0388 62.1476 46.0388 62.3477 46.0388C62.8279 46.0388 63.3082 46.0388 63.7484 46.0388C63.8684 46.0388 63.9484 46.0789 64.0285 46.1992C64.1886 46.48 64.3886 46.7607 64.5487 47.0414C64.8288 47.5226 65.109 48.0039 65.4291 48.445C65.5892 48.6856 65.7092 48.8862 65.8693 49.1268C66.1494 49.608 66.4696 50.0893 66.7497 50.5705C66.9498 50.8913 67.1899 51.2523 67.39 51.5731L67.43 51.6132L67.47 51.5731C67.47 51.4929 67.47 51.4528 67.47 51.3726C67.47 49.6882 67.47 48.0039 67.47 46.3195C67.47 46.2794 67.47 46.1992 67.47 46.1591C67.47 46.0388 67.47 46.0388 67.5901 46.0388C68.0303 46.0388 68.4705 46.0388 68.9507 46.0388C69.0707 46.0388 69.1107 46.0789 69.1107 46.1992C69.1107 46.2393 69.1107 46.3195 69.1107 46.3596C69.1107 49.0065 69.1107 51.6934 69.1107 54.3402C68.5505 54.3402 67.9502 54.3402 67.39 54.3402C67.35 54.3001 67.35 54.26 67.3099 54.2199C66.9098 53.6184 66.5496 53.0168 66.1494 52.3752C65.7492 51.7335 65.309 51.0518 64.9089 50.4101C64.5887 49.8888 64.2286 49.3674 63.9084 48.8461C63.8684 48.806 63.8284 48.7659 63.7884 48.6857C63.7884 48.7659 63.7484 48.806 63.7484 48.8862C63.7484 50.6908 63.7484 52.4955 63.7484 54.3001C63.1881 54.3803 62.6679 54.3803 62.1476 54.3803Z" fill="#424141"/>
<path d="M55.3846 54.3803C55.3446 54.3001 55.2646 54.3402 55.1845 54.3402C54.6243 54.1798 54.064 54.0194 53.5838 53.6585C53.0636 53.2975 52.6234 52.8163 52.3033 52.2148C52.1032 51.8538 51.9831 51.4929 51.9031 51.0919C51.8631 51.0117 51.8631 50.9314 51.8631 50.8111C51.8631 50.4101 51.823 49.969 51.8631 49.5679C51.9031 49.2872 51.9831 49.0065 52.0632 48.7258C52.2232 48.3247 52.4233 47.9638 52.6634 47.643C52.9435 47.2419 53.3037 46.9612 53.7039 46.6805C54.1041 46.4399 54.5843 46.2393 55.0645 46.119C55.4246 46.0388 55.8248 46.0388 56.185 46.0388C56.7452 46.0388 57.3055 46.1591 57.8257 46.3998C58.3059 46.6003 58.7461 46.881 59.1063 47.2419C59.3464 47.4825 59.5465 47.7232 59.7466 48.044C59.7866 48.1242 59.7866 48.1643 59.7065 48.2044C59.3064 48.4049 58.9462 48.6054 58.546 48.8461C58.3859 48.9263 58.3859 48.9263 58.3059 48.806C58.2259 48.6857 58.1458 48.5252 58.0258 48.4049C57.8657 48.2445 57.7056 48.0841 57.5056 48.0039C57.2254 47.8435 56.9053 47.6831 56.5451 47.643C56.265 47.6029 56.0249 47.6029 55.7848 47.6029C55.3846 47.643 55.0245 47.7633 54.7043 47.9237C54.5442 48.044 54.3442 48.1242 54.2241 48.2846C54.064 48.445 53.8639 48.6455 53.7439 48.8862C53.5838 49.1268 53.4638 49.4476 53.4238 49.7283C53.3837 49.8888 53.3837 50.0893 53.3837 50.2497C53.4238 50.8111 53.5438 51.3726 53.904 51.8137C54.3041 52.295 54.7844 52.6158 55.3846 52.7762C55.5447 52.8163 55.7048 52.8163 55.8248 52.8163C55.8648 52.8163 55.9449 52.8564 55.9849 52.8564C56.0249 52.8564 56.0649 52.8564 56.0649 52.8564C56.6252 52.7762 57.1854 52.7361 57.6256 52.3351C57.9458 52.0543 58.1859 51.7736 58.3059 51.3726C58.3059 51.3726 58.3059 51.3726 58.3059 51.3325C58.3459 51.2523 58.466 51.1721 58.386 51.0919C58.3459 51.0518 58.2259 51.0518 58.1458 51.0518C57.4655 51.0518 56.7452 51.0518 56.0649 51.0518C56.0249 51.0518 55.9849 51.0518 55.9449 51.0518C55.8648 51.0518 55.8248 51.0116 55.8248 50.9314C55.8248 50.6507 55.8248 50.3299 55.8248 50.0492C55.8248 49.8888 55.8248 49.7283 55.8248 49.5679C55.8248 49.5278 55.8648 49.4877 55.9048 49.4877C55.9449 49.4877 55.9849 49.4877 56.0249 49.4877C57.3055 49.4877 58.6261 49.4877 59.9066 49.4877C59.9466 49.4877 59.9867 49.4877 60.0267 49.4877C60.0667 49.4877 60.1067 49.5278 60.1067 49.5679C60.1067 49.6481 60.1067 49.7283 60.1067 49.8085C60.1067 49.9289 60.1067 50.0893 60.1067 50.2096C60.1067 50.8913 59.9466 51.4929 59.6665 52.0944C59.4664 52.4955 59.2263 52.8965 58.8662 53.2173C58.506 53.5382 58.1058 53.8189 57.6256 54.0194C57.3455 54.1397 57.0654 54.2199 56.7852 54.26C56.7852 54.26 56.7852 54.3001 56.7452 54.3001C56.345 54.3803 55.8648 54.3803 55.3846 54.3803Z" fill="#424141"/>
<path d="M24.9711 54.3803C24.9711 51.6533 24.9711 48.9664 24.9711 46.2393C24.9711 46.0388 24.9711 46.0388 25.1712 46.0388C25.9715 46.0388 26.7719 46.0388 27.5722 46.0388C27.7723 46.0388 27.9724 46.0789 28.2125 46.119C28.4926 46.1591 28.7728 46.2393 29.0529 46.3195C29.413 46.4399 29.7332 46.6003 30.0533 46.8409C30.4535 47.1216 30.7737 47.4825 31.0538 47.8836C31.3339 48.3247 31.454 48.7659 31.574 49.2471C31.614 49.4075 31.614 49.608 31.614 49.7684C31.614 49.8888 31.574 50.0492 31.654 50.1695C31.6941 50.2096 31.614 50.2898 31.614 50.37C31.614 51.0518 31.4139 51.6533 31.1338 52.2148C31.0138 52.4554 30.8137 52.6559 30.6536 52.8965C30.4135 53.1772 30.1334 53.3778 29.8532 53.6184C29.413 53.9392 28.8928 54.0996 28.3726 54.26C28.2525 54.3001 28.1325 54.3001 28.0524 54.3001L28.0124 54.3402C26.972 54.3803 25.9715 54.3803 24.9711 54.3803ZM27.132 47.5628C26.972 47.5628 26.7719 47.5628 26.6118 47.5628C26.5718 47.5628 26.5318 47.6029 26.5318 47.643C26.5318 47.6831 26.5318 47.7633 26.5318 47.8034C26.5318 49.4476 26.5318 51.0518 26.5318 52.696C26.5318 52.7361 26.5318 52.7762 26.5318 52.8163C26.5318 52.9366 26.5318 52.9366 26.6518 52.9366C26.9319 52.9366 27.2121 52.9366 27.4922 52.8965C27.7723 52.8564 28.0925 52.8163 28.3326 52.696C28.6127 52.5757 28.8528 52.4554 29.0929 52.2549C29.4531 51.934 29.6932 51.5731 29.8532 51.0919C29.8933 50.9314 29.9733 50.771 29.9733 50.6106C29.9733 50.2497 30.0133 49.8487 29.9333 49.4877C29.8933 49.2872 29.8132 49.0466 29.7332 48.8461C29.6131 48.6054 29.4531 48.3648 29.213 48.1643C28.9728 47.9638 28.7327 47.8034 28.4526 47.7232C28.0524 47.6029 27.5722 47.5226 27.132 47.5628Z" fill="#424141"/>
<path d="M78.1948 54.3803C78.1948 51.6934 78.1948 48.9664 78.1948 46.2794C78.1948 46.0388 78.1547 46.0789 78.3949 46.0789C79.2752 46.0789 80.1956 46.0789 81.076 46.0789C81.4762 46.0789 81.8764 46.1591 82.2366 46.3195C82.4767 46.3997 82.6767 46.5201 82.8768 46.6805C83.237 46.9612 83.5571 47.3221 83.7172 47.7633C83.7972 47.9237 83.8373 48.1242 83.8773 48.2846C83.8773 48.3247 83.8773 48.3247 83.8773 48.3648C83.8773 48.6054 83.9173 48.8461 83.9173 49.0867C83.8773 49.4476 83.8373 49.8085 83.6772 50.1695C83.5171 50.4903 83.357 50.771 83.1169 51.0117C82.9569 51.132 82.7968 51.2523 82.6367 51.3726C82.5967 51.4127 82.5567 51.4528 82.5967 51.4929C82.7168 51.6533 82.7968 51.8538 82.8768 52.0543C82.9969 52.2549 83.0769 52.4153 83.197 52.6158C83.3971 52.9767 83.5972 53.3377 83.7972 53.6585C83.9173 53.859 83.9973 54.0996 84.1974 54.3001C84.1974 54.3402 84.2374 54.3803 84.1174 54.3803C83.5571 54.3803 82.9569 54.3803 82.3966 54.3803C82.3966 54.3402 82.3966 54.3001 82.3566 54.26C82.1965 53.9793 82.0365 53.6585 81.8764 53.3778C81.6363 52.8965 81.3962 52.4554 81.1561 51.9741C81.1161 51.8939 81.076 51.8538 80.996 51.8538C80.6358 51.8538 80.2757 51.8538 79.9155 51.8538C79.7154 51.8538 79.7154 51.8538 79.7154 52.0543C79.7154 52.8163 79.7154 53.6184 79.7154 54.3803C79.2752 54.3803 78.755 54.3803 78.1948 54.3803ZM79.7955 48.9664C79.7955 49.4075 79.7955 49.8487 79.7955 50.2497C79.7955 50.37 79.7955 50.37 79.9155 50.37C80.2757 50.37 80.5958 50.37 80.956 50.37C81.1161 50.37 81.2761 50.37 81.3962 50.3299C81.7163 50.2497 81.9964 50.0492 82.1965 49.7684C82.3566 49.5278 82.3966 49.2471 82.4366 48.9263C82.4366 48.806 82.4366 48.6455 82.3966 48.5252C82.3166 48.2445 82.1965 47.9638 81.9564 47.8034C81.6763 47.6029 81.3562 47.5226 81.036 47.5226C80.6759 47.5226 80.2757 47.5226 79.9155 47.5226C79.7955 47.5226 79.7955 47.5226 79.7955 47.643C79.7955 48.1242 79.7955 48.5252 79.7955 48.9664Z" fill="#424141"/>
<path d="M7.96356 54.3804C7.96356 51.6533 7.96356 48.9664 7.96356 46.2393C7.96356 46.0388 7.96356 46.0388 8.16365 46.0388C8.56383 46.0388 9.00403 46.0388 9.4042 46.0388C9.52426 46.0388 9.56427 46.0388 9.56427 46.1591C9.56427 46.6003 9.56427 47.0815 9.56427 47.5227C9.56427 48.0841 9.56427 48.6857 9.56427 49.2471C9.56427 49.3674 9.56427 49.4075 9.68433 49.4075C10.6448 49.4075 11.5652 49.4075 12.5256 49.4075C12.6456 49.4075 12.6456 49.4075 12.6456 49.2471C12.6456 48.2445 12.6456 47.282 12.6456 46.2794C12.6456 46.2393 12.6456 46.1591 12.6456 46.119C12.6456 45.9987 12.6456 45.9987 12.7657 45.9987C13.2059 45.9987 13.6461 45.9987 14.1263 45.9987C14.2464 45.9987 14.2464 45.9987 14.2464 46.119C14.2464 46.1591 14.2464 46.1591 14.2464 46.1992C14.2464 48.9263 14.2464 51.6132 14.2464 54.3403C13.7261 54.3403 13.2059 54.3403 12.6857 54.3403C12.6857 53.2976 12.6857 52.2549 12.6857 51.2122C12.6857 51.132 12.6857 51.0919 12.6857 51.0117C12.6857 50.9716 12.6456 50.9716 12.6056 50.9314C12.5656 50.9314 12.5256 50.9314 12.5256 50.9314C11.6052 50.9314 10.6848 50.9314 9.72435 50.9314C9.56427 50.9314 9.56427 50.9315 9.56427 51.0919C9.56427 51.132 9.56427 51.1721 9.56427 51.2122C9.56427 52.2549 9.56427 53.2976 9.56427 54.3403C9.04404 54.3804 8.48379 54.3804 7.96356 54.3804Z" fill="#424141"/>
<path d="M71.1917 54.3803C71.1917 51.6934 71.1917 48.9664 71.1917 46.2794V46.2393C71.1917 46.0789 71.1916 46.0789 71.3517 46.0789C72.9124 46.0789 74.4331 46.0789 75.9938 46.0789C76.0338 46.0789 76.0338 46.0789 76.0738 46.0789C76.1539 46.0789 76.1539 46.119 76.1539 46.1591C76.1539 46.2794 76.1539 46.3997 76.1539 46.5201C76.1539 46.8008 76.1539 47.0815 76.1539 47.3622C76.1539 47.5627 76.1539 47.5627 75.9538 47.5627C74.9933 47.5627 73.9929 47.5627 73.0325 47.5627C72.7924 47.5627 72.7924 47.5627 72.7924 47.8034C72.7924 48.2846 72.7924 48.7659 72.7924 49.2471C72.7924 49.4476 72.7924 49.4075 72.9524 49.4075C73.9529 49.4075 74.9133 49.4075 75.9137 49.4075C76.1939 49.4075 76.1939 49.4075 76.1939 49.6882C76.1939 50.0492 76.1939 50.4101 76.1939 50.771C76.1939 50.9314 76.1939 50.9314 76.0338 50.9314C75.0334 50.9314 74.0729 50.9314 73.0725 50.9314C73.0325 50.9314 72.9524 50.9314 72.9124 50.9314C72.8324 50.9314 72.7924 50.9715 72.7924 51.0518C72.7924 51.6132 72.7924 52.2148 72.7924 52.7762C72.7924 52.8564 72.7924 52.8965 72.8724 52.8564C72.9124 52.8564 72.9924 52.8564 73.0325 52.8564C73.9929 52.8564 74.9533 52.8564 75.9137 52.8564C75.9538 52.8564 75.9938 52.8564 75.9938 52.8564C76.1539 52.8564 76.1539 52.8564 76.1539 53.0168C76.1539 53.458 76.1539 53.8991 76.1539 54.3402C74.5131 54.3803 72.8724 54.3803 71.1917 54.3803Z" fill="#424141"/>
<path d="M33.5349 54.3803C33.5349 51.6934 33.5349 48.9664 33.5349 46.2794V46.2393C33.5349 46.0789 33.5349 46.0789 33.695 46.0789C35.2157 46.0789 36.7764 46.0789 38.297 46.0789C38.337 46.0789 38.337 46.0789 38.3771 46.0789C38.4971 46.0789 38.4971 46.119 38.4971 46.2393C38.4971 46.6404 38.4971 47.0815 38.4971 47.4825C38.4971 47.6029 38.4571 47.6029 38.337 47.6029C38.297 47.6029 38.217 47.6029 38.177 47.6029C37.2566 47.6029 36.2961 47.6029 35.3757 47.6029C35.3357 47.6029 35.2557 47.6029 35.2157 47.6029C35.1356 47.6029 35.0956 47.6028 35.0956 47.7232C35.0956 48.2846 35.0956 48.806 35.0956 49.3674C35.0956 49.4476 35.1356 49.4877 35.2157 49.4877C35.4958 49.4877 35.7359 49.4877 36.016 49.4877C36.7764 49.4877 37.4967 49.4877 38.257 49.4877C38.297 49.4877 38.3771 49.4877 38.4171 49.4877C38.4971 49.4877 38.4971 49.5278 38.5371 49.608C38.5371 49.608 38.5371 49.608 38.5371 49.6481C38.5371 50.0893 38.5371 50.4903 38.5371 50.9314C38.5371 50.9715 38.4971 51.0116 38.4571 51.0116C38.4171 51.0116 38.337 51.0116 38.297 51.0116C37.3366 51.0116 36.3762 51.0116 35.4157 51.0116C35.3757 51.0116 35.2957 51.0116 35.2557 51.0116C35.1756 51.0116 35.1356 51.0517 35.1356 51.132V51.1721C35.1356 51.7335 35.1356 52.2549 35.1356 52.8163C35.1356 52.9366 35.1356 52.9767 35.2557 52.9767C35.7759 52.9767 36.2961 52.9767 36.7764 52.9767C37.2566 52.9767 37.7368 52.9767 38.177 52.9767C38.217 52.9767 38.257 52.9767 38.297 52.9767C38.4171 52.9767 38.4571 53.0168 38.4571 53.1371C38.4571 53.458 38.4571 53.8189 38.4571 54.1397C38.4571 54.26 38.4571 54.3402 38.4571 54.4605C36.8564 54.3803 35.2157 54.3803 33.5349 54.3803Z" fill="#424141"/>
<path d="M16.4073 54.3803C16.4073 51.6533 16.4073 48.9664 16.4073 46.2393C16.4073 46.0388 16.4073 46.0388 16.6074 46.0388C18.1281 46.0388 19.6487 46.0388 21.1694 46.0388C21.2094 46.0388 21.2494 46.0388 21.2494 46.0388C21.3295 46.0388 21.3695 46.0388 21.3695 46.119C21.3695 46.1591 21.3695 46.1591 21.3695 46.1992C21.3695 46.6003 21.3695 47.0013 21.3695 47.4023C21.3695 47.5628 21.3695 47.5628 21.2094 47.5628C20.7692 47.5628 20.329 47.5628 19.9289 47.5628C19.3686 47.5628 18.7683 47.5628 18.2081 47.5628C18.048 47.5628 18.048 47.5628 18.048 47.6831C18.048 48.2044 18.048 48.7258 18.048 49.2471C18.048 49.3674 18.048 49.4075 18.1681 49.4075C18.7683 49.4075 19.4086 49.4075 20.0089 49.4075C20.4091 49.4075 20.8493 49.4075 21.2494 49.4075C21.3695 49.4075 21.3695 49.4075 21.3695 49.5278C21.3695 49.969 21.3695 50.37 21.3695 50.8111C21.3695 50.8913 21.3295 50.9314 21.2895 50.8913C21.2494 50.8913 21.1694 50.8913 21.1294 50.8913C20.169 50.8913 19.2085 50.8913 18.2481 50.8913C18.048 50.8913 18.048 50.8913 18.048 51.0919C18.048 51.6533 18.048 52.1747 18.048 52.7361C18.048 52.8564 18.048 52.8564 18.2081 52.8564C18.9284 52.8564 19.6487 52.8564 20.369 52.8564C20.6892 52.8564 20.9693 52.8564 21.2895 52.8564C21.4095 52.8564 21.4095 52.8564 21.4095 52.9767C21.4095 53.4179 21.4095 53.8991 21.4095 54.3402C19.6887 54.3803 18.048 54.3803 16.4073 54.3803Z" fill="#424141"/>
<path d="M42.6189 54.3803C42.5789 54.3001 42.4989 54.3402 42.4188 54.3402C42.0187 54.2199 41.6185 54.0996 41.2583 53.859C41.0182 53.6986 40.7781 53.5382 40.538 53.3377C40.4179 53.2173 40.2579 53.097 40.1778 52.9767C40.1378 52.9366 40.1378 52.8965 40.1778 52.8965C40.578 52.6158 40.9782 52.295 41.3784 52.0142C41.4184 51.9741 41.4984 51.934 41.5785 51.8939C41.6185 51.9741 41.6985 52.0142 41.7385 52.0944C41.9786 52.4554 42.2988 52.696 42.699 52.8564C43.0591 52.9767 43.4593 53.0168 43.8595 52.9366C44.2196 52.8564 44.4597 52.6158 44.5798 52.2549C44.7399 51.8137 44.5798 51.533 44.1796 51.2523C43.8995 51.0518 43.5794 51.0116 43.2592 50.8913C42.819 50.7309 42.3388 50.5705 41.8986 50.4101C41.3784 50.2096 40.9782 49.8887 40.7381 49.3674C40.6581 49.1669 40.578 48.9664 40.578 48.7659C40.578 48.6856 40.538 48.6054 40.538 48.4851C40.578 47.9237 40.7381 47.4023 41.1383 46.9612C41.4584 46.6404 41.8186 46.3997 42.2187 46.2794C42.4989 46.1992 42.819 46.119 43.0991 46.119C43.2592 46.119 43.3793 46.119 43.5393 46.119C44.1396 46.1591 44.6998 46.2794 45.2201 46.6003C45.5002 46.8008 45.7803 47.0013 46.0204 47.2419C46.1005 47.3221 46.1005 47.3622 46.0204 47.4023C45.6603 47.6831 45.3401 47.9237 44.98 48.2044C44.8199 48.3247 44.8199 48.3247 44.6598 48.1643C44.3797 47.8435 44.0596 47.6028 43.6194 47.5226C43.3392 47.4825 43.0591 47.4825 42.779 47.5627C42.4989 47.643 42.2988 47.8034 42.2187 48.0841C42.0987 48.4851 42.2187 48.806 42.5789 49.0065C42.899 49.207 43.2592 49.2872 43.5793 49.4075C43.9395 49.5278 44.3397 49.6481 44.6998 49.8085C45.06 49.969 45.4202 50.1695 45.7003 50.4502C46.0204 50.8111 46.2605 51.2523 46.2205 51.7335C46.2205 51.8137 46.2205 51.934 46.2205 52.0142C46.2205 52.5356 46.0204 53.0168 45.7003 53.4179C45.3801 53.859 44.8999 54.0996 44.4197 54.26C44.3397 54.3001 44.2196 54.3001 44.0996 54.3402C44.0596 54.3402 44.0596 54.3803 44.0195 54.3803C43.5793 54.3803 43.0991 54.3803 42.6189 54.3803Z" fill="#424141"/>
<path d="M0 46.0789C1.92085 46.0789 3.84171 46.0789 5.76256 46.0789C6.00267 46.0789 5.96265 46.0388 5.96265 46.2794C5.96265 46.6805 5.96265 47.0815 5.96265 47.4825C5.96265 47.6029 5.96265 47.643 5.8426 47.643C5.24233 47.643 4.64206 47.643 4.0418 47.643C4.00178 47.643 3.92174 47.643 3.88173 47.643C3.76167 47.643 3.76167 47.643 3.76167 47.7633C3.76167 47.8034 3.76167 47.8836 3.76167 47.9237C3.76167 50.0893 3.76167 52.2549 3.76167 54.4205C3.24144 54.4205 2.72121 54.4205 2.20098 54.4205C2.20098 52.4554 2.20098 50.5304 2.20098 48.5653C2.20098 48.2846 2.20098 48.0039 2.20098 47.7633C2.20098 47.643 2.20098 47.6029 2.08093 47.6029C1.40062 47.6029 0.72032 47.6029 0.0400179 47.6029C1.52059e-07 47.0815 0 46.6003 0 46.0789Z" fill="#424141"/>
<path d="M48.2615 54.3803C48.2615 51.6533 48.2615 48.9664 48.2615 46.2393C48.2615 46.2393 48.2615 46.2393 48.2615 46.1992C48.2615 46.0388 48.2615 46.0388 48.4215 46.0388C48.8617 46.0388 49.3019 46.0388 49.7021 46.0388C49.8222 46.0388 49.8222 46.0388 49.8222 46.1591C49.8222 46.1992 49.8222 46.2393 49.8222 46.2794C49.8222 48.9664 49.8222 51.6934 49.8222 54.3803C49.3019 54.3803 48.7817 54.3803 48.2615 54.3803Z" fill="#424141"/>
<path d="M48.7417 31.7219C48.7417 33.9676 48.7417 36.2535 48.7417 38.4993C48.7417 38.5394 48.7417 38.5795 48.7417 38.6197C48.7417 38.7801 48.7417 38.7801 48.5816 38.7801C46.6207 38.7801 44.6198 38.7801 42.659 38.7801C42.619 38.7801 42.5789 38.7801 42.5789 38.7801C42.5389 38.7801 42.4989 38.74 42.4989 38.6999C42.4989 38.6598 42.4989 38.5795 42.4989 38.5394C42.4989 36.1332 42.4989 33.7671 42.4989 31.3609C42.4989 31.2005 42.5389 31.1203 42.659 31C43.1392 30.5187 43.5794 30.0776 44.0596 29.5563C44.3797 29.1953 44.7399 28.8745 45.02 28.5537C45.3402 28.1927 45.7403 27.8719 46.0605 27.4709C46.3806 27.11 46.7408 26.7891 47.0209 26.4683C47.3411 26.1074 47.7012 25.7464 48.0614 25.3855C48.3015 25.1449 48.5016 24.9043 48.7417 24.6636L48.7817 24.6235C48.7817 24.6636 48.8217 24.6636 48.8217 24.7037C48.8217 24.7839 48.8217 24.8241 48.8217 24.9043C48.7417 27.1902 48.7417 29.4761 48.7417 31.7219Z" fill="#424141"/>
<path d="M40.5781 7.29882C40.5781 7.33893 40.5781 7.37903 40.5781 7.45924V22.6585C40.5781 22.6986 40.5781 22.6986 40.5781 22.7387L34.2552 28.4334C34.2552 28.3532 34.2552 28.3131 34.2552 28.2329C34.2552 24.423 34.2552 20.6533 34.2552 16.8435V9.90555C34.2552 9.86545 34.2552 9.82534 34.2552 9.78524V2.32599C34.5354 2.4463 34.7755 2.56661 35.0556 2.72702C35.6959 3.08796 36.3362 3.44889 36.9364 3.89003C37.2966 4.13065 37.6167 4.41137 37.9769 4.6921C38.297 4.93272 38.6172 5.21344 38.8973 5.49417C39.2575 5.81499 39.5776 6.13582 39.9378 6.49675C40.1379 6.69727 40.338 6.93789 40.538 7.17851C40.538 7.17851 40.5781 7.25872 40.5781 7.29882Z" fill="#424141"/>
<path d="M74.5532 0.962484C74.5532 1.56404 74.5932 2.16559 74.5532 2.76714C74.5131 3.52911 74.5531 4.25097 74.5131 4.97283C74.4731 5.45407 74.4731 5.93532 74.4731 6.41656C74.4731 6.53687 74.4331 6.57697 74.313 6.53687C74.0729 6.49677 73.8328 6.45666 73.6327 6.45666C73.0325 6.37645 72.4322 6.41656 71.8319 6.41656C71.5518 6.41656 71.3117 6.41656 71.0316 6.49677C70.9115 6.53687 70.7515 6.53687 70.6314 6.53687C70.0311 6.61708 69.4709 6.73739 68.9106 6.8978C68.3904 7.01811 67.9102 7.21863 67.43 7.41915C66.6296 7.73997 65.8693 8.18111 65.149 8.66235C64.8688 8.86287 64.6287 9.06339 64.3486 9.26391C63.9885 9.54463 63.7083 9.86546 63.3882 10.1462C62.948 10.5472 62.5478 10.9884 62.1076 11.3493C61.6674 11.7102 61.3073 12.1514 60.8671 12.5524C60.4269 12.9133 60.0667 13.3545 59.6265 13.7555C59.1863 14.1164 58.8262 14.5576 58.426 14.9185C57.9858 15.2794 57.6256 15.7206 57.1854 16.1216C56.7853 16.4825 56.4251 16.8836 56.0249 17.2445C55.8248 17.4049 55.6247 17.6054 55.4647 17.7658L54.5042 18.6882C54.3442 18.8085 54.1841 18.969 54.064 19.1294L52.0632 21.0543H52.0231C51.9831 21.0944 51.9831 21.0944 51.9431 21.1345C51.823 21.2548 51.663 21.4153 51.5029 21.5757C51.4229 21.6559 51.3428 21.7361 51.3028 21.7762L49.502 23.5407C49.502 23.5407 49.502 23.5407 49.502 23.5809L48.3415 24.7037C48.2615 24.784 48.1814 24.8642 48.1014 24.9043L47.141 25.8266C47.0209 25.9069 46.9409 26.0272 46.8608 26.1074L45.8204 27.11C45.7804 27.1501 45.7403 27.1902 45.6603 27.2303L44.6599 28.1928C44.4998 28.3532 44.3397 28.5136 44.1796 28.6339L42.0987 30.6391C42.0587 30.6792 42.0187 30.7193 41.9787 30.7594C41.6985 31.0401 41.4184 31.3208 41.1383 31.6015C40.6981 32.0026 40.2979 32.4437 39.8577 32.8047C39.5376 33.0854 39.2174 33.4463 38.8973 33.727C38.6172 33.9677 38.337 34.1682 38.0969 34.4088C37.7768 34.7296 37.3766 34.9702 37.0165 35.2109C36.6963 35.4515 36.3762 35.652 36.056 35.8525C35.7359 36.053 35.4157 36.2135 35.0956 36.414C34.8955 36.5343 34.6954 36.6546 34.4553 36.7348C33.9351 36.9754 33.4149 37.216 32.8946 37.4166C32.4944 37.577 32.0943 37.7374 31.6941 37.8577C31.2139 38.0181 30.7737 38.1384 30.2935 38.2587C29.9733 38.3389 29.6532 38.379 29.333 38.4592C29.0929 38.4994 28.8528 38.4993 28.5727 38.5796C28.2926 38.6197 28.0125 38.6598 27.7323 38.6999C27.4922 38.74 27.2521 38.6999 27.052 38.74C26.4518 38.8202 25.8915 38.7801 25.2912 38.7801C25.0511 38.7801 24.771 38.7801 24.5309 38.74C24.2508 38.6999 23.9306 38.6999 23.6505 38.6598C23.2103 38.5796 22.7701 38.5395 22.3699 38.4592C22.0098 38.379 21.6496 38.2988 21.3295 38.2186C20.8093 38.0983 20.329 37.9379 19.8488 37.7775C19.2886 37.577 18.7683 37.3764 18.2481 37.1358C17.8479 36.9353 17.4878 36.7749 17.0876 36.5744C16.4073 36.2135 15.767 35.8124 15.1667 35.4114C14.7666 35.1307 14.4064 34.8499 14.0462 34.5692C13.7261 34.3286 13.446 34.0479 13.1659 33.8072C12.8857 33.5666 12.6456 33.326 12.4055 33.0854C12.1254 32.8047 11.8853 32.5239 11.6452 32.2432C11.4451 32.0026 11.245 31.8021 11.0449 31.5614C10.8448 31.3208 10.6447 31.0802 10.4847 30.7995C10.2446 30.4385 10.0044 30.1177 9.80436 29.7568C9.64429 29.5162 9.52423 29.2755 9.40418 29.0349C9.20409 28.674 9.004 28.273 8.80391 27.8719C8.56381 27.3907 8.3237 26.8693 8.16363 26.348C8.04358 26.0272 7.92352 25.7464 7.84349 25.4256C7.68341 24.9043 7.56336 24.423 7.44331 23.9017C7.36327 23.5407 7.32325 23.1798 7.24322 22.8189C7.2032 22.5783 7.16318 22.2975 7.12317 22.0168C7.08315 21.8163 7.08315 21.6158 7.08315 21.4153C7.04313 21.0944 7.08315 20.7335 7.04313 20.4127C6.96309 19.9314 7.04313 19.4903 7.00311 19.0091C7.08315 18.7283 7.00311 18.4877 7.04313 18.207C7.08315 17.8862 7.08315 17.6054 7.12317 17.2846C7.16318 16.9237 7.24322 16.5627 7.28324 16.2419C7.36327 15.6404 7.52334 15.0789 7.68341 14.4774C7.80347 13.9961 8.00356 13.5149 8.16363 13.0336C8.28368 12.7128 8.40374 12.4321 8.52379 12.1113C8.60382 11.9107 8.68386 11.7503 8.7639 11.5498C9.004 11.0686 9.24411 10.6274 9.48422 10.1462C9.84438 9.50453 10.2446 8.86287 10.6848 8.26132C10.9249 7.94049 11.165 7.61966 11.4051 7.29884C11.5651 7.09832 11.7252 6.97801 11.8453 6.77749C12.1654 6.37645 12.5256 6.01552 12.9257 5.65459C13.1659 5.41397 13.406 5.21345 13.6461 5.01294C13.8462 4.81242 14.0863 4.65201 14.2864 4.45149C14.4464 4.33118 14.6065 4.21087 14.7265 4.09056C14.9667 3.89004 15.2068 3.72962 15.4869 3.56921C15.767 3.36869 16.0471 3.20828 16.3273 3.04787C16.8875 2.68693 17.5278 2.40621 18.1281 2.08538C18.5683 1.88486 19.0485 1.68435 19.4887 1.52393C19.7688 1.40362 20.0489 1.32342 20.289 1.24321C20.8093 1.08279 21.3295 0.962484 21.8497 0.842173C22.1699 0.761966 22.53 0.681759 22.8502 0.641656C23.1703 0.601552 23.4904 0.521346 23.8106 0.481242C24.1707 0.441139 24.5309 0.441138 24.8911 0.401035C25.5714 0.320828 26.2917 0.401035 26.972 0.360932C27.2521 0.441139 27.5723 0.360932 27.8524 0.441139C27.8924 0.441139 27.9324 0.441139 27.9324 0.441139C28.1725 0.441139 28.4527 0.481242 28.6928 0.521345C28.8528 0.561449 29.0129 0.561449 29.173 0.561449C29.293 0.561449 29.3731 0.601552 29.4531 0.601552C30.0934 0.721863 30.6936 0.842173 31.3339 1.04269C32.0142 1.24321 32.6945 1.48383 33.3348 1.76455C33.695 1.88486 34.0151 2.04528 34.3353 2.20569V9.66494C34.3353 9.58473 34.2552 9.50453 34.2152 9.46442C33.8551 9.1837 33.4549 8.90297 33.0947 8.66235C32.5745 8.30142 32.0142 8.0207 31.454 7.73997C30.8937 7.49935 30.3335 7.25873 29.7332 7.09832C29.4131 7.01811 29.0929 6.9379 28.7728 6.8577C28.5727 6.81759 28.4126 6.77749 28.2125 6.73739C28.0525 6.69728 27.8924 6.69728 27.7323 6.69728C27.6123 6.69728 27.4922 6.65718 27.3722 6.65718C27.2521 6.65718 27.1321 6.65718 27.012 6.61708C26.972 6.61708 26.892 6.61708 26.8519 6.61708C26.5318 6.61708 26.2517 6.61708 25.9315 6.61708C25.5714 6.61708 25.2112 6.61708 24.811 6.65718C24.5309 6.69728 24.2508 6.73739 23.9707 6.77749C23.2103 6.8978 22.49 7.09832 21.7697 7.33894C21.4495 7.45925 21.1294 7.61966 20.8093 7.73997C20.6092 7.82018 20.4491 7.90039 20.289 7.98059C19.6487 8.34153 19.0085 8.70246 18.4482 9.1436C18.1681 9.34411 17.928 9.58473 17.6478 9.78525C17.2877 10.1061 16.9275 10.467 16.6074 10.8279C16.2472 11.229 15.9271 11.63 15.647 12.031C15.1667 12.7128 14.7666 13.4347 14.4064 14.1966C14.1663 14.7581 13.9262 15.3195 13.8061 15.9211C13.7661 16.0815 13.6861 16.282 13.6461 16.4424C13.606 16.6429 13.566 16.8435 13.526 17.044C13.486 17.2846 13.406 17.5653 13.406 17.806C13.406 17.9664 13.3659 18.1268 13.3659 18.2471C13.3259 18.8085 13.2859 19.3299 13.3259 19.8913C13.3259 20.132 13.3259 20.3726 13.3659 20.5731C13.446 21.0142 13.486 21.4955 13.566 21.9767C13.6861 22.6184 13.8862 23.26 14.0863 23.8616C14.1663 24.1022 14.2864 24.3428 14.3664 24.5834C14.4864 24.9043 14.6465 25.185 14.8066 25.5058C15.0867 26.0272 15.4068 26.5485 15.767 27.0298C16.0071 27.3907 16.2872 27.7115 16.5674 28.0323C16.8475 28.3532 17.1276 28.6339 17.4478 28.9146C17.7279 29.1953 18.048 29.436 18.3682 29.6766C18.6883 29.8771 18.9684 30.1177 19.2886 30.3182C19.7288 30.6391 20.209 30.8797 20.7292 31.1203C21.2895 31.401 21.8497 31.6015 22.45 31.762C22.8902 31.8823 23.3304 32.0026 23.7706 32.0828C24.0907 32.1229 24.4109 32.2031 24.731 32.2432C24.9311 32.2833 25.1312 32.2432 25.2912 32.2833C25.7715 32.3635 26.2517 32.3234 26.7319 32.3234C26.972 32.3234 27.2121 32.2833 27.4522 32.2833C27.6923 32.2432 27.8924 32.2432 28.1325 32.2031C28.4126 32.1229 28.6928 32.0828 28.9729 32.0026C29.4931 31.9224 29.9733 31.762 30.4936 31.6015C30.8137 31.4812 31.0938 31.3609 31.414 31.2406C31.6541 31.1203 31.9342 31 32.1743 30.8797C32.7746 30.5589 33.3348 30.238 33.8551 29.837C34.0952 29.6365 34.3353 29.4761 34.5754 29.2755C34.8155 29.075 34.9756 28.8745 35.2157 28.674C35.6959 28.273 36.1361 27.7516 36.6163 27.3506C37.0165 26.9896 37.3766 26.5886 37.7768 26.2277C38.257 25.8266 38.6572 25.3454 39.0974 24.9444C39.2174 24.8642 39.2975 24.7439 39.4175 24.6235C39.6977 24.3428 39.9778 24.0621 40.2579 23.8215C40.2979 23.7814 40.3379 23.7413 40.378 23.7012C40.498 23.621 40.578 23.5006 40.6981 23.3803L40.7381 23.3402C40.9782 23.0996 41.2583 22.8189 41.4985 22.5783C41.5385 22.5382 41.5785 22.4981 41.6185 22.458C41.6985 22.4179 41.7386 22.3376 41.8186 22.2975L41.8986 22.2173C42.1788 21.9366 42.4589 21.6559 42.739 21.4153C42.779 21.3752 42.8591 21.3351 42.8991 21.295C43.0191 21.2147 43.0992 21.0944 43.2192 21.0142C43.4993 20.7335 43.7394 20.4929 44.0196 20.2523C44.0596 20.2122 44.0996 20.1721 44.1396 20.132L44.1796 20.0918C44.2597 20.0116 44.3797 19.9314 44.4598 19.8111L44.4998 19.771C44.7399 19.5304 45.02 19.2497 45.2601 19.0091C45.3001 18.969 45.3402 18.9288 45.3802 18.8887C45.5002 18.7684 45.5803 18.6882 45.7003 18.5679H45.7403C45.9804 18.3273 46.2206 18.0466 46.5007 17.806C46.5407 17.806 46.5407 17.7658 46.5807 17.7257L46.6608 17.6856C46.8208 17.5252 46.9809 17.4049 47.1009 17.2445L49.1419 15.2794C49.1819 15.2794 49.1819 15.2393 49.2219 15.2393C49.382 15.0789 49.542 14.9185 49.6621 14.7982L49.7421 14.718C49.8622 14.5977 50.0222 14.4373 50.1423 14.3169C50.6225 13.8758 51.0627 13.3946 51.5429 12.9534C51.5829 12.9133 51.663 12.8732 51.703 12.8331L51.8631 12.7128C52.1432 12.4321 52.4233 12.1113 52.7435 11.8706C52.7835 11.8305 52.8235 11.7904 52.8635 11.7503C52.9836 11.63 53.1036 11.5097 53.2237 11.3894H53.2637C53.4638 11.1889 53.6238 10.9884 53.8239 10.8279L54.024 10.6274C54.064 10.5873 54.1041 10.5472 54.1441 10.5071L54.1841 10.467C54.5443 10.1061 54.9044 9.74515 55.2646 9.42432C55.7048 9.06339 56.0649 8.62225 56.5051 8.22122C56.9453 7.86028 57.3055 7.41915 57.7057 7.05821C58.1459 6.65718 58.546 6.21604 58.9862 5.81501C59.2664 5.57438 59.5465 5.25356 59.8266 5.01294C60.2268 4.652 60.627 4.29107 61.0672 3.97025C61.5474 3.60931 62.0276 3.24838 62.5478 2.92756C62.7879 2.76714 63.028 2.64683 63.2681 2.48642C63.6283 2.2859 63.9885 2.08538 64.3486 1.88486C64.9089 1.60414 65.4691 1.36352 66.0294 1.163C66.3895 1.04269 66.7497 0.92238 67.1098 0.80207C67.51 0.681759 67.9102 0.561449 68.3104 0.481242C68.6305 0.441139 68.9507 0.320828 69.2708 0.280725C69.5109 0.240621 69.751 0.200518 69.9911 0.160414C70.1912 0.120311 70.3513 0.120311 70.5114 0.0802073C70.5514 0.0802073 70.5914 0.0802073 70.5914 0.0802073C70.8715 0.0802073 71.1917 0.0401036 71.4718 0.0401036C71.5118 0.0401036 71.5118 0 71.5518 0H73.7928C73.8328 0 73.8728 0.0401036 73.9129 0.0401036C74.193 0.0401036 74.4731 0.0802073 74.7532 0.0802073C74.7933 0.0802073 74.8333 0.120311 74.8333 0.160414C74.8333 0.320828 74.8733 0.481242 74.7933 0.601552C74.5131 0.842173 74.5532 0.92238 74.5532 0.962484Z" fill="url(#paint0_linear_102_4)"/>
<path d="M37.4166 38.8603C36.4562 38.8603 35.4558 38.8603 34.4954 38.8603C34.4553 38.8603 34.3753 38.8603 34.3353 38.8603C34.2552 38.8603 34.2552 38.8202 34.2552 38.7801C34.2552 38.6197 34.2552 38.4592 34.2552 38.2988C34.2552 38.1384 34.2552 37.978 34.2552 37.8176C34.4153 37.7374 34.5354 37.6973 34.6954 37.6171C35.1757 37.3764 35.6559 37.1358 36.1361 36.8551C36.7764 36.4942 37.3766 36.0931 37.9369 35.652C38.257 35.3713 38.6172 35.1708 38.9373 34.89C39.3375 34.5291 39.6977 34.1682 40.0978 33.7671C40.2579 33.6067 40.378 33.4463 40.538 33.2859L40.578 33.2458C40.578 33.2859 40.6181 33.2859 40.6181 33.326C40.6181 33.3661 40.6181 33.4062 40.6181 33.4463C40.6181 35.1708 40.6181 36.8952 40.6181 38.6197C40.6181 38.9004 40.6581 38.8603 40.378 38.8603C39.3775 38.8603 38.3771 38.8603 37.4166 38.8603Z" fill="#424141"/>
<path d="M48.7417 15.2794L42.4589 20.9741V20.8939C42.4589 17.044 42.4589 13.1539 42.4589 9.30401C42.4589 9.2238 42.4589 9.14359 42.4989 9.06339C42.6189 9.06339 42.659 9.14359 42.699 9.2238C43.4593 9.94566 44.1796 10.7076 44.8999 11.4295C45.1 11.63 45.3001 11.9107 45.5402 12.1112C45.8204 12.3519 46.0605 12.5925 46.3006 12.8331C47.1009 13.6753 47.9413 14.4774 48.7417 15.2794Z" fill="#424141"/>
<path d="M76.1539 36.9754V43.2717C75.9538 43.2717 75.7537 43.2717 75.5536 43.2717C75.2735 43.2717 74.9933 43.2717 74.6732 43.2717C74.3931 43.2717 74.153 43.2717 73.8728 43.2316C73.6327 43.1915 73.3526 43.1915 73.1125 43.1514C72.8724 43.1113 72.6323 43.0311 72.3922 43.0311C72.1521 42.991 71.872 42.9509 71.6318 42.8707C71.3517 42.7905 71.0316 42.7503 70.7515 42.6701C70.3513 42.5498 69.9511 42.4295 69.5509 42.3092C69.0707 42.1488 68.5905 41.9884 68.1503 41.7879C67.6301 41.5472 67.1098 41.3066 66.5896 41.0259C66.1894 40.8254 65.8293 40.5848 65.4291 40.3441C64.8288 39.9832 64.3086 39.5822 63.7483 39.141C63.5082 38.9405 63.2681 38.74 63.068 38.5395C61.1072 36.6947 59.2263 34.7296 57.3055 32.8047C55.5047 31 53.6639 29.1954 51.8631 27.3506C50.9026 26.3881 49.9422 25.4256 49.0218 24.4632C49.0218 24.4632 49.0218 24.4231 48.9818 24.4231L53.3437 19.9315C53.3437 19.9315 53.3437 19.9315 53.3837 19.9716C54.3041 20.8939 55.1845 21.7762 56.1049 22.6986C56.345 22.9392 56.5852 23.1798 56.8253 23.4205C60.0667 26.7892 63.4282 30.0375 66.7097 33.3661C66.9498 33.6068 67.2299 33.8474 67.51 34.088C67.9102 34.4489 68.3504 34.7296 68.7906 35.0104C69.3108 35.3312 69.831 35.6119 70.3913 35.8927C70.9115 36.1333 71.4318 36.3338 71.992 36.4942C72.3121 36.5744 72.6323 36.6546 72.9524 36.7348C73.2726 36.815 73.5527 36.8551 73.8728 36.9353C74.1129 36.9754 74.3531 36.9754 74.5932 36.9754C75.1134 37.0155 75.6336 36.9754 76.1539 36.9754Z" fill="#424141"/>
<defs>
<linearGradient id="paint0_linear_102_4" x1="3.6976" y1="28.5246" x2="74.075" y2="0.603021" gradientUnits="userSpaceOnUse">
<stop stop-color="#22AF97"/>
<stop offset="1" stop-color="#2FAD6D"/>
</linearGradient>
</defs>
</svg>
